<svg xmlns="http://www.w3.org/2000/svg" width="15" height="15" viewBox="0 0 15 15"><g><g><path fill="#fff" d="M10.8 9c.1-.5.1-1 .1-1.5s-.1-1-.1-1.5h2.6c.2.5.2 1 .2 1.5s-.1 1.1-.2 1.5zm-1.3 4.2c.5-.8.8-1.7 1.1-2.7h2.2c-.8 1.3-2 2.2-3.3 2.7zM9.2 9H5.8c-.1-.5-.2-1-.2-1.5s.1-1 .2-1.5h3.5c.1.5.2 1 .2 1.5s-.2 1-.3 1.5zm-1.7 4.5c-.6-.9-1.1-1.9-1.4-3H9c-.4 1.1-.9 2.1-1.5 3zm-3-9H2.3c.8-1.3 1.9-2.2 3.2-2.7-.4.9-.8 1.7-1 2.7zm-2.2 6h2.2c.2 1 .6 1.8 1.1 2.7-1.4-.5-2.6-1.4-3.3-2.7zM1.7 9c-.2-.5-.2-1-.2-1.5s0-1.1.2-1.5h2.6c-.1.5-.1 1-.1 1.5s.1 1 .1 1.5zm5.8-7.5c.6.9 1.1 1.9 1.4 3H6.1c.3-1.1.8-2.1 1.4-3zm5.2 3h-2.2c-.2-1-.6-1.8-1.1-2.7 1.4.5 2.6 1.4 3.3 2.7zM7.5 0C3.4 0 0 3.4 0 7.5S3.4 15 7.5 15 15 11.6 15 7.5 11.6 0 7.5 0z"/></g></g></svg>