<svg xmlns="http://www.w3.org/2000/svg" width="40" height="40" viewBox="0 0 40 40"><g><g><path fill="#00e676" d="M10.485 34.382l.649.324c2.702 1.622 5.73 2.379 8.756 2.379 9.514 0 17.298-7.784 17.298-17.298 0-4.54-1.838-8.973-5.081-12.216C28.863 4.328 24.539 2.49 19.89 2.49c-9.513 0-17.297 7.784-17.189 17.405 0 3.244.973 6.379 2.595 9.081l.432.65-1.73 6.378z"/></g><g><path fill="#fff" d="M28.324 23.784s-1.73-.757-2.81-1.298c-.109 0-.217-.108-.325-.108-.324 0-.54.108-.757.217 0 0-.108.108-1.621 1.837a.595.595 0 0 1-.54.325h-.109c-.108 0-.324-.108-.432-.216l-.54-.217c-1.19-.54-2.271-1.189-3.136-2.054-.216-.216-.54-.432-.757-.648-.756-.757-1.513-1.622-2.054-2.595l-.108-.216c-.108-.108-.108-.216-.216-.433 0-.216 0-.432.108-.54 0 0 .432-.54.757-.865.216-.216.324-.54.54-.757.217-.324.325-.757.217-1.08-.109-.541-1.406-3.46-1.73-4.109-.216-.324-.433-.432-.757-.54h-1.19c-.215 0-.432.108-.648.108l-.108.108c-.216.108-.432.324-.649.432-.216.216-.324.433-.54.649-.757.973-1.19 2.162-1.19 3.351 0 .865.217 1.73.541 2.487l.108.324a18.01 18.01 0 0 0 4 5.513l.433.433c.324.324.648.54.865.865 2.27 1.946 4.865 3.351 7.783 4.108.325.108.757.108 1.082.216h1.08c.541 0 1.19-.216 1.622-.432.325-.217.54-.217.757-.433l.216-.216c.216-.216.433-.324.649-.54.216-.217.432-.433.54-.65.217-.432.325-.972.433-1.513v-.756s-.108-.109-.324-.217zm-16.65 10.26l-.65-.323-6.268 1.62 1.622-6.16-.433-.648C1.19 20.86 3.46 10.7 11.241 5.945c7.781-4.755 17.832-2.486 22.588 5.296 4.755 7.781 2.485 17.832-5.296 22.588-2.486 1.62-5.512 2.485-8.538 2.485-2.918 0-5.836-.756-8.322-2.27zM20 0C8.973 0 .108 8.973.216 19.892c0 3.46.973 6.81 2.595 9.838L0 40l10.486-2.703c2.92 1.622 6.163 2.379 9.406 2.379 10.919 0 19.784-8.973 19.784-19.892 0-5.298-2.054-10.27-5.73-13.946C30.27 2.054 25.189 0 20 0z"/></g></g></svg>